<svg width="171" height="214" viewBox="0 0 171 214" fill="none" xmlns="http://www.w3.org/2000/svg">
    <path d="M85.3333 117.333C82.0859 117.295 78.9047 118.253 76.218 120.078C73.5314 121.903 71.4682 124.507 70.3063 127.539C69.1443 130.572 68.9393 133.888 69.7189 137.041C70.4985 140.193 72.2252 143.032 74.6667 145.173V160C74.6667 162.829 75.7905 165.542 77.7909 167.542C79.7913 169.543 82.5044 170.667 85.3333 170.667C88.1623 170.667 90.8754 169.543 92.8758 167.542C94.8762 165.542 96 162.829 96 160V145.173C98.4415 143.032 100.168 140.193 100.948 137.041C101.727 133.888 101.522 130.572 100.36 127.539C99.1984 124.507 97.1353 121.903 94.4486 120.078C91.762 118.253 88.5808 117.295 85.3333 117.333ZM138.667 74.6667V53.3333C138.667 39.1885 133.048 25.6229 123.046 15.621C113.044 5.61903 99.4782 0 85.3333 0C71.1885 0 57.6229 5.61903 47.621 15.621C37.619 25.6229 32 39.1885 32 53.3333V74.6667C23.5131 74.6667 15.3737 78.0381 9.37258 84.0392C3.37142 90.0404 0 98.1797 0 106.667V181.333C0 189.82 3.37142 197.96 9.37258 203.961C15.3737 209.962 23.5131 213.333 32 213.333H138.667C147.154 213.333 155.293 209.962 161.294 203.961C167.295 197.96 170.667 189.82 170.667 181.333V106.667C170.667 98.1797 167.295 90.0404 161.294 84.0392C155.293 78.0381 147.154 74.6667 138.667 74.6667ZM53.3333 53.3333C53.3333 44.8464 56.7048 36.7071 62.7059 30.7059C68.7071 24.7048 76.8464 21.3333 85.3333 21.3333C93.8203 21.3333 101.96 24.7048 107.961 30.7059C113.962 36.7071 117.333 44.8464 117.333 53.3333V74.6667H53.3333V53.3333ZM149.333 181.333C149.333 184.162 148.21 186.875 146.209 188.876C144.209 190.876 141.496 192 138.667 192H32C29.171 192 26.4579 190.876 24.4575 188.876C22.4571 186.875 21.3333 184.162 21.3333 181.333V106.667C21.3333 103.838 22.4571 101.125 24.4575 99.1242C26.4579 97.1238 29.171 96 32 96H138.667C141.496 96 144.209 97.1238 146.209 99.1242C148.21 101.125 149.333 103.838 149.333 106.667V181.333Z" fill="#024E6B"/>
</svg>
